<svg xmlns="http://www.w3.org/2000/svg" viewBox="0 0 440 96" role="img" aria-label="Nimbus">
  <defs>
    <linearGradient id="g" x1="8" x2="86" y1="8" y2="86" gradientUnits="userSpaceOnUse">
      <stop stop-color="#2563EB"/>
      <stop offset="0.58" stop-color="#22D3EE"/>
      <stop offset="1" stop-color="#F59E0B"/>
    </linearGradient>
  </defs>
  <rect x="4" y="8" width="80" height="80" rx="20" fill="#0F172A"/>
  <path d="M22 56c0-7.2 5.8-13 13-13 2.2 0 4.2.5 6 1.5C43.9 36.1 51.8 30 61 30c10.5 0 19 8.5 19 19s-8.5 19-19 19H32c-5.5 0-10-4.5-10-10Z" fill="url(#g)"/>
  <path d="M29 55.5c0-3.4 2.7-6.1 6.1-6.1h27.2c3.7 0 6.7-3 6.7-6.7" fill="none" stroke="#fff" stroke-width="5.5" stroke-linecap="round"/>
  <text x="108" y="61" fill="#2563EB" font-family="Inter, Arial, sans-serif" font-size="44" font-weight="750" letter-spacing="0">Nimbus</text>
  <text x="287" y="61" fill="#0891B2" font-family="Inter, Arial, sans-serif" font-size="20" font-weight="600" letter-spacing="0">docs</text>
</svg>
